<svg xmlns="http://www.w3.org/2000/svg" viewBox="0 0 800 270" role="img" aria-label="Drone placeholder">
  <defs>
    <linearGradient id="bg1" x1="0" y1="0" x2="1" y2="1">
      <stop offset="0" stop-color="#141922"/><stop offset="1" stop-color="#1b212c"/>
    </linearGradient>
  </defs>
  <rect width="800" height="270" fill="url(#bg1)"/>
  <g stroke="#273140" stroke-width="1" opacity="0.6">
    <path d="M0 45H800M0 90H800M0 135H800M0 180H800M0 225H800"/>
    <path d="M100 0V270M200 0V270M300 0V270M400 0V270M500 0V270M600 0V270M700 0V270"/>
  </g>
  <g transform="translate(400 135)" fill="none" stroke="#4ea1ff" stroke-width="4" stroke-linecap="round">
    <!-- arms -->
    <path d="M-70 -46 L-30 -18 M70 -46 L30 -18 M-70 46 L-30 18 M70 46 L30 18"/>
    <!-- body -->
    <rect x="-30" y="-18" width="60" height="36" rx="8" fill="#141922"/>
    <circle cx="0" cy="0" r="7" fill="#7cf0c8" stroke="none"/>
    <!-- rotors -->
    <g stroke="#93a1b5">
      <circle cx="-84" cy="-56" r="26"/><circle cx="84" cy="-56" r="26"/>
      <circle cx="-84" cy="56" r="26"/><circle cx="84" cy="56" r="26"/>
    </g>
    <g stroke="#4ea1ff" opacity="0.5">
      <path d="M-104 -56H-64 M-84 -76V-36 M64 -56H104 M84 -76V-36 M-104 56H-64 M-84 36V76 M64 56H104 M84 36V76"/>
    </g>
  </g>
  <circle cx="740" cy="40" r="4" fill="#7cf0c8"/>
  <text x="30" y="242" fill="#93a1b5" font-family="monospace" font-size="14" opacity="0.7">UAV // NO IMAGE</text>
</svg>
